<?xml version="1.0" encoding="UTF-8" standalone="no"?>
<!-- Created with Inkscape (http://www.inkscape.org/) -->

<svg
   xmlns:dc="http://purl.org/dc/elements/1.1/"
   xmlns:cc="http://creativecommons.org/ns#"
   xmlns:rdf="http://www.w3.org/1999/02/22-rdf-syntax-ns#"
   xmlns:svg="http://www.w3.org/2000/svg"
   xmlns="http://www.w3.org/2000/svg"
   xmlns:xlink="http://www.w3.org/1999/xlink"
   version="1.1"
   width="2592"
   height="1944"
   id="svg2">
  <metadata
     id="metadata8">
    <rdf:RDF>
      <cc:Work
         rdf:about="">
        <dc:format>image/svg+xml</dc:format>
        <dc:type
           rdf:resource="http://purl.org/dc/dcmitype/StillImage" />
        <dc:title></dc:title>
      </cc:Work>
    </rdf:RDF>
  </metadata>
  <defs
     id="defs6" />
  <image
     xlink:href="ben-doherty.jpg"
     x="0"
     y="0"
     width="2592"
     height="1944"
     id="image10" />
  <path
     d="m 512.96979,590.91084 c -54.588,52.1155 -9.2881,144.50564 5.82902,236.3435 15.11712,91.83787 27.29856,210.02426 54.54568,236.92506 27.24712,26.9007 115.1275,1.9962 200.65666,-7.2 85.52916,-9.1962 168.7071,-2.684 217.71049,-64.86018 49.00336,-62.17618 3.20072,-357.10866 -115.88048,-476.18987 -119.0812,-119.0812 -308.27337,22.86599 -362.86137,74.98149 z"
     id="Jumper" />
  <path
     d="m 902.4258,473.32228 90.56206,235.39728 32.13494,239.29244 293.4397,-20.4495 c 0,0 17.6227,-409.35157 -82.7718,-509.746 -100.3944,-100.39443 -333.3649,55.50578 -333.3649,55.50578 z"
     id="lifters" />
  <rect
     width="194.8385"
     height="269.60205"
     x="1295.9023"
     y="243.35847"
     id="shaker" />
  <rect
     width="208.43184"
     height="269.60205"
     x="1515.662"
     y="234.29622"
     id="tupaware" />
  <path
     d="m 1470.7362,628.77473 c -154.8377,116.17099 -127.9858,325.59586 -186.9668,418.37917 -58.9811,92.7833 -13.6331,293.629 49.663,363.9918 63.2961,70.3628 541.0373,158.5844 650.6587,65.2437 109.6214,-93.3408 77.0577,-243.1451 65.7489,-394.5778 -11.3088,-151.43267 4.4799,-327.8645 -89.1198,-427.71844 -93.5997,-99.85393 -335.1463,-141.48941 -489.984,-25.31843 z"
     id="bag" />
  <rect
     width="636.62335"
     height="234.20798"
     x="1345.7448"
     y="1542.937"
     id="towel" />
  <rect
     width="157.19864"
     height="360.22461"
     x="1172.6873"
     y="1416.9204"
     id="charger" />
  <rect
     width="267.33649"
     height="169.95793"
     x="526.81018"
     y="1647.265"
     transform="matrix(0.97595665,-0.21796472,0.21796472,0.97595665,0,0)"
     id="wallet" />
  <path
     d="m 1083.1392,950.68767 c -22.9012,1.39798 -25.9944,48.36753 -10.7992,110.46923 9.6957,39.6254 -8.6787,41.3537 -1.1861,68.4876 7.4926,27.1339 22.1583,23.2025 32.9056,47.9245 25.2253,58.0258 58.3715,206.6636 91.9619,189.8806 33.5903,-16.7831 -28.5569,-143.4127 -45.3091,-207.7195 -6.4642,-26.852 5.8592,-39.1565 -0.6352,-52.7249 -18.7522,-38.2418 -16.7117,-20.5896 -26.8615,-50.2916 -10.1499,-29.7019 -17.1753,-107.42391 -40.0764,-106.02593 z"
     id="watch" />
  <rect
     width="34.888371"
     height="258.74496"
     x="929.31616"
     y="1357.6526"
     transform="matrix(0.96050669,-0.27825689,0.2066125,0.97842285,0,0)"
     id="pen" />
  <path
     d="m 586.33738,1129.6782 c -105.18466,78.7554 -66.88364,196.2449 -39.92521,284.978 41.24632,110.5396 98.58978,308.7189 187.88581,311.7067 86.64372,-0.5528 79.87975,-191.0387 95.83905,-252.2684 17.54111,-61.4915 79.74955,-35.3319 129.14126,-112.9965 49.39171,-77.6646 90.57791,-146.8216 8.76407,-238.2363 -81.81381,-91.4146 -276.52031,-71.9389 -381.70498,6.8165 z"
     id="rope" />
  <path
     d="m 1146.3752,1360.6174 a 61.170216,71.36525 0 1 1 -122.3405,0 61.170216,71.36525 0 1 1 122.3405,0 z"
     transform="translate(-8,-6)"
     id="keys" />
</svg>
